<svg width="229" height="48" viewBox="0 0 229 48" fill="none" xmlns="http://www.w3.org/2000/svg">
<path d="M211.794 31.2957V18.3386L210.925 14.199L211.794 11.7152H217.424L218.252 12.6673C218.252 12.6673 218.445 12.5569 218.832 12.3361C219.218 12.0877 219.756 11.8532 220.446 11.6324C221.163 11.4116 221.991 11.3012 222.93 11.3012C223.482 11.3012 224.034 11.3426 224.586 11.4254C225.138 11.5082 225.565 11.6186 225.869 11.7566L228.56 14.0334L225.869 19.3321L220.405 17.0553L219.163 17.4693V31.2957H211.794Z" fill="#F2A700"/>
<path d="M192.838 31.7097C191.182 31.7097 189.899 31.3923 188.988 30.7576C188.105 30.1228 187.484 29.2121 187.125 28.0254C186.794 26.8111 186.629 25.3622 186.629 23.6788V11.7152H194.08V22.6025C194.08 23.6236 194.273 24.4239 194.66 25.0035C195.073 25.583 195.681 25.8728 196.481 25.8728C197.226 25.8728 197.902 25.5554 198.509 24.9207C199.144 24.2859 199.462 23.3614 199.462 22.1471V11.7152H206.913V24.6309L207.782 28.7706L206.913 31.2957H199.917V29.2673L199.503 29.0603C199.144 29.4191 198.62 29.8055 197.93 30.2194C197.267 30.6334 196.495 30.9922 195.612 31.2957C194.756 31.5717 193.832 31.7097 192.838 31.7097Z" fill="#F2A700"/>
<path d="M173.894 31.7097C171.769 31.7097 169.879 31.3923 168.223 30.7576C166.567 30.1229 165.27 29.0603 164.332 27.5701C163.393 26.0798 162.924 24.0652 162.924 21.5262C162.924 19.7047 163.228 18.1455 163.835 16.8484C164.47 15.5513 165.311 14.5026 166.36 13.7022C167.409 12.8743 168.582 12.281 169.879 11.9222C171.176 11.5358 172.514 11.3427 173.894 11.3427C176.268 11.3427 178.089 11.5772 179.359 12.0464C180.656 12.5155 181.511 12.8881 181.925 13.1641L183.995 19.7461L183.167 22.3127H170.334C170.527 23.3338 171.038 24.1894 171.866 24.8793C172.694 25.5692 174.06 25.9142 175.964 25.9142C177.454 25.9142 178.738 25.7486 179.814 25.4175C180.89 25.0863 181.732 24.7965 182.339 24.5481V30.0953C181.511 30.5368 180.311 30.9232 178.738 31.2544C177.192 31.5579 175.578 31.7097 173.894 31.7097ZM170.376 19.6633L176.088 18.8354L175.716 17.0554C175.523 16.945 175.233 16.8622 174.846 16.807C174.488 16.7518 174.17 16.7242 173.894 16.7242C173.122 16.7242 172.473 16.8898 171.949 17.2209C171.452 17.5521 171.066 17.9523 170.79 18.4214C170.541 18.863 170.403 19.277 170.376 19.6633Z" fill="#F2A700"/>
<path d="M146.534 31.7097C145.237 31.7097 143.981 31.3785 142.767 30.7162C141.58 30.0539 140.6 29.0051 139.828 27.5701C139.055 26.135 138.669 24.2584 138.669 21.9402C138.669 19.3736 139.041 17.3175 139.786 15.7721C140.559 14.2266 141.552 13.1089 142.767 12.419C143.981 11.7014 145.237 11.3427 146.534 11.3427C148.493 11.3427 149.873 11.5082 150.673 11.8394C151.501 12.1706 151.915 12.3362 151.915 12.3362L151.501 4.51223L151.915 2.02844H159.408V24.6723L160.236 28.812L159.408 31.3372H152.329V29.3087L151.915 29.1017C151.915 29.1017 151.708 29.3225 151.294 29.7641C150.88 30.1781 150.273 30.6058 149.473 31.0474C148.673 31.4889 147.693 31.7097 146.534 31.7097ZM149.639 25.8728L151.915 25.2933V19.2494C151.915 18.6146 151.708 18.1179 151.294 17.7591C150.88 17.3727 150.329 17.1796 149.639 17.1796C148.617 17.1796 147.845 17.5245 147.32 18.2145C146.796 18.8768 146.534 19.9807 146.534 21.5262C146.534 23.0441 146.837 24.148 147.445 24.8379C148.052 25.5278 148.783 25.8728 149.639 25.8728Z" fill="#F2A700"/>
<path d="M126.102 31.7097C122.735 31.7097 120.127 30.9094 118.278 29.3087C116.429 27.7081 115.504 25.1139 115.504 21.5262C115.504 17.9109 116.429 15.3167 118.278 13.7436C120.127 12.143 122.735 11.3427 126.102 11.3427C129.551 11.3427 132.159 12.143 133.926 13.7436C135.72 15.3167 136.616 17.9109 136.616 21.5262C136.616 25.1139 135.72 27.7081 133.926 29.3087C132.159 30.9094 129.551 31.7097 126.102 31.7097ZM126.102 26.3282C127.233 26.3282 128.02 25.9142 128.461 25.0863C128.903 24.2308 129.124 23.0441 129.124 21.5262C129.124 19.9807 128.903 18.794 128.461 17.9661C128.02 17.1382 127.233 16.7242 126.102 16.7242C124.943 16.7242 124.129 17.1382 123.659 17.9661C123.218 18.794 122.997 19.9807 122.997 21.5262C122.997 23.0441 123.218 24.2308 123.659 25.0863C124.129 25.9142 124.943 26.3282 126.102 26.3282Z" fill="#F2A700"/>
<path d="M103.493 31.7097C101.589 31.7097 99.8637 31.3923 98.3183 30.7576C96.8004 30.1229 95.5861 29.0603 94.6754 27.5701C93.7923 26.0798 93.3507 24.0652 93.3507 21.5262C93.3507 18.9596 93.8336 16.945 94.7996 15.4823C95.7655 13.992 97.0212 12.9295 98.5666 12.2948C100.112 11.66 101.754 11.3427 103.493 11.3427C105.011 11.3427 106.308 11.3978 107.384 11.5082C108.488 11.6186 109.219 11.7152 109.578 11.798L112.807 15.4409L109.495 19.9531L104.735 17.1382C102.361 17.1382 101.175 18.6008 101.175 21.5262C101.175 23.0441 101.533 24.1618 102.251 24.8793C102.968 25.5692 104.072 25.9142 105.563 25.9142C107.053 25.9142 108.391 25.7072 109.578 25.2933C110.765 24.8793 111.689 24.4929 112.352 24.1342V30.0953C111.496 30.5368 110.365 30.9232 108.957 31.2544C107.577 31.5579 105.756 31.7097 103.493 31.7097Z" fill="#F2A700"/>
<path d="M86.4378 10.5561L81.1804 5.25735L86.4378 0L91.6951 5.25735L86.4378 10.5561ZM82.7121 31.2957V17.5935L81.8428 14.2818L82.6707 11.7566H90.1635V31.2957H82.7121Z" fill="white"/>
<path d="M57.1637 31.2957V8.61044L56.2944 4.47079L57.1637 1.987H64.6151V8.61044L64.1597 19.3321H65.8155L69.0031 11.7566H77.448V14.2404L72.853 20.9466L75.9163 24.6723L79.8076 28.8533V31.2957H71.7766L67.0988 24.4653L64.6151 24.8793V31.2957H57.1637Z" fill="white"/>
<path d="M38.046 31.7097C36.8593 31.7097 35.7554 31.5441 34.7342 31.213C33.7407 30.8542 32.9404 30.247 32.3332 29.3915C31.7261 28.536 31.4225 27.3493 31.4225 25.8314C31.4225 24.4515 31.7675 23.3062 32.4574 22.3955C33.1474 21.4848 34.0857 20.8086 35.2724 20.3671C36.4591 19.9255 37.7976 19.7047 39.2879 19.7047C40.7229 19.7047 41.7992 19.8703 42.5168 20.2015C43.2343 20.5051 43.8553 20.8224 44.3796 21.1536L44.6694 20.9052C44.6694 20.0773 44.6004 19.3874 44.4624 18.8354C44.3244 18.2835 44.0071 17.8695 43.5103 17.5935C43.0135 17.2899 42.2408 17.1381 41.1921 17.1381C40.171 17.1381 39.0809 17.2347 37.9218 17.4279C36.7903 17.5935 35.7416 17.8143 34.7756 18.0903C33.8373 18.3386 33.1336 18.587 32.6644 18.8354V12.6259C33.5199 12.3224 34.7342 12.0464 36.3073 11.798C37.908 11.522 39.8674 11.384 42.1856 11.384C44.6694 11.384 46.6288 11.7014 48.0639 12.3362C49.5266 12.9433 50.5753 13.8402 51.21 15.0269C51.8448 16.186 52.1622 17.5797 52.1622 19.208V24.7137L52.9901 28.8948L52.1622 31.3371H45.0834V29.3087L44.6694 29.1017C44.4486 29.3225 44.0623 29.6399 43.5103 30.0539C42.9583 30.4678 42.227 30.8542 41.3163 31.213C40.4056 31.5441 39.3155 31.7097 38.046 31.7097ZM41.5647 26.2868C42.3098 26.2868 42.9445 26.2178 43.4689 26.0798C44.0209 25.9418 44.421 25.8176 44.6694 25.7072V24.9207C44.6694 24.5619 44.4072 24.2169 43.8829 23.8858C43.3861 23.5546 42.5996 23.389 41.5233 23.389C40.033 23.389 39.2879 23.9134 39.2879 24.9621C39.2879 25.4036 39.4534 25.7348 39.7846 25.9556C40.1158 26.1764 40.7091 26.2868 41.5647 26.2868Z" fill="white"/>
<path d="M0.827931 31.2957V8.65183L0 4.51219L0.827931 1.987H13.1641C15.1511 1.987 17.0554 2.18018 18.8768 2.56655C20.7258 2.92532 22.3679 3.61526 23.803 4.63637C25.2657 5.65749 26.411 7.12016 27.2389 9.0244C28.0944 10.9286 28.5222 13.3986 28.5222 16.4344C28.5222 19.4701 28.0944 21.9677 27.2389 23.9271C26.3834 25.859 25.2243 27.363 23.7616 28.4394C22.2989 29.5157 20.643 30.2608 18.794 30.6748C16.9726 31.0887 15.0959 31.2957 13.1641 31.2957H0.827931ZM8.36209 24.6723H13.1641C15.5927 24.6723 17.4555 24.0375 18.7526 22.768C20.0497 21.4709 20.6982 19.3597 20.6982 16.4344C20.6982 13.509 20.0359 11.4806 18.7112 10.3491C17.4141 9.18998 15.5651 8.61044 13.1641 8.61044H8.36209V24.6723Z" fill="white"/>
<path d="M54.1734 40.7578H164.761C164.761 40.7578 217.028 47.1652 164.761 46.6716C112.494 46.178 90.7228 45.4476 54.1734 46.6716C17.6239 47.8956 54.1734 40.7578 54.1734 40.7578Z" fill="url(#paint0_linear_4_169)"/>
<defs>
<linearGradient id="paint0_linear_4_169" x1="37.9292" y1="43.7853" x2="187.991" y2="43.7853" gradientUnits="userSpaceOnUse">
<stop stop-color="#FFF5F5" stop-opacity="0"/>
<stop offset="0.0001" stop-color="white"/>
<stop offset="1" stop-color="#F2A700"/>
</linearGradient>
</defs>
</svg>
